PathFileType	4	(X/Y/Z)	C:/Users/opensim2020/Desktop/walking_exp_matlab/subject03_walking09_straight_01.trc																																																																																																																																											
DataRate	CameraRate	NumFrames	NumMarkers	Units	OrigDataRate	OrigDataStartFrame	OrigNumFrames																																																																																																																																							
100	100	4	47	mm	100	686	493																																																																																																																																							
Frame#	Time	LFHD			RFHD			LBHD			RBHD			C7			T10			CLAV			STRN			RBAK			LSHO			LUPA			LELB			LFRM			LWRA			LWRB			LFIN			RSHO			RUPA			RELB			RFRM			RWRA			RWRB			RFIN			LASI			RASI			LPSI			RPSI			LTHI			LKNE			LTIB			LANK			LHEE			LTOE			RTHI			RKNE			RTIB			RANK			RHEE			RTOE			*39			*40			*41			*42			*43			*44			*45			*46		
		X1	Y1	Z1	X2	Y2	Z2	X3	Y3	Z3	X4	Y4	Z4	X5	Y5	Z5	X6	Y6	Z6	X7	Y7	Z7	X8	Y8	Z8	X9	Y9	Z9	X10	Y10	Z10	X11	Y11	Z11	X12	Y12	Z12	X13	Y13	Z13	X14	Y14	Z14	X15	Y15	Z15	X16	Y16	Z16	X17	Y17	Z17	X18	Y18	Z18	X19	Y19	Z19	X20	Y20	Z20	X21	Y21	Z21	X22	Y22	Z22	X23	Y23	Z23	X24	Y24	Z24	X25	Y25	Z25	X26	Y26	Z26	X27	Y27	Z27	X28	Y28	Z28	X29	Y29	Z29	X30	Y30	Z30	X31	Y31	Z31	X32	Y32	Z32	X33	Y33	Z33	X34	Y34	Z34	X35	Y35	Z35	X36	Y36	Z36	X37	Y37	Z37	X38	Y38	Z38	X39	Y39	Z39	X40	Y40	Z40	X41	Y41	Z41	X42	Y42	Z42	X43	Y43	Z43	X44	Y44	Z44	X45	Y45	Z45	X46	Y46	Z46	X47	Y47	Z47
																																																																																																																																														
62	0.61	-1142.45984	1622.64148	-1021.35638	-1158.71423	1626.88574	-890.89636	-1271.18225	1578.91528	-1032.69043	-1281.92627	1582.74255	-901.75482	-1307.63025	1421.01953	-967.46521	-1345.9906	1108.59204	-970.19476	-1187.10205	1341.93835	-973.35846	-1146.20874	1176.28711	-986.35522	-1358.53186	1242.43213	-873.36694	-1239.97803	1388.15271	-1124.99158	-1248.0896	1197.02698	-1207.09448	-1230.93872	1076.81665	-1228.57678	-1177.19202	959.3324	-1236.69006	-1124.83435	851.69513	-1212.42065	-1155.22327	849.56958	-1259.86584	-1114.43689	775.8009	-1255.74512	-1226.3092	1360.32947	-811.81	-1199.88342	1138.1311	-745.59851	-1167.70752	1029.88733	-736.40234	-1129.41943	898.49792	-741.02496	-1087.17407	810.95374	-782.32617	-1112.73389	799.48291	-736.24597	-1079.25024	734.10242	-750.83612	-1199.40991	942.9964	-1100.25232	-1178.68884	935.75153	-864.7478	-1356.57935	968.15393	-1040.08191	-1340.04443	976.92627	-890.90991	-1212.02576	646.41797	-1163.91382	-1169.45361	470.84155	-1151.12537	-1292.29382	315.76065	-1141.29236	-1404.34497	138.87141	-1095.39441	-1449.79187	125.92358	-1050.71729	-1289.89294	41.27409	-1091.52979	-1249.33105	644.86414	-827.39307	-1248.9502	464.72372	-866.00818	-1301.92139	281.79865	-861.17114	-1339.75293	67.95911	-910.9613	-1385.42566	35.47442	-960.15808	-1198.85669	31.5025	-923.92657	NaN	NaN	NaN	NaN	NaN	NaN	NaN	NaN	NaN	NaN	NaN	NaN	NaN	NaN	NaN	NaN	NaN	NaN	NaN	NaN	NaN	NaN	NaN	NaN
63	0.62	-1138.58765	1622.60938	-1021.69855	-1154.72595	1626.89697	-891.20374	-1267.27295	1578.66382	-1032.89136	-1278.02722	1582.58838	-901.84424	-1303.59509	1420.99609	-967.15155	-1342.13037	1108.60254	-969.53448	-1183.00073	1341.79114	-973.82562	-1142.57617	1176.1405	-986.06134	-1353.96216	1242.60242	-872.46655	-1236.63965	1387.96741	-1124.93884	-1245.54932	1196.66492	-1206.68518	-1228.99268	1076.58704	-1228.47705	-1175.11694	959.23285	-1236.96875	-1123.62024	850.86499	-1212.74609	-1153.11597	849.52466	-1260.17651	-1112.08276	775.80682	-1256.24805	-1221.27307	1360.33887	-811.91992	-1193.96436	1138.35901	-745.5885	-1161.16321	1030.24158	-736.65668	-1122.46973	899.02344	-741.46899	-1080.10437	811.61993	-783.09088	-1105.24036	800.08936	-736.82758	-1071.57349	734.95398	-751.51422	-1195.53027	943.45923	-1099.9248	-1174.52771	935.45868	-864.5932	-1352.75647	968.21985	-1039.72668	-1335.98718	976.76367	-890.47583	-1205.10168	647.29114	-1163.38989	-1160.34766	472.22778	-1149.97839	-1279.31519	314.10287	-1140.85486	-1384.74268	134.81015	-1096.05322	-1431.82703	119.28838	-1051.32446	-1268.62378	40.45307	-1092.63672	-1246.30286	644.49756	-827.38214	-1247.0343	464.36606	-865.94781	-1300.83972	281.71887	-861.15289	-1339.63342	67.95689	-911.03363	-1385.43237	35.6931	-960.12482	-1198.82751	31.4663	-923.92841	NaN	NaN	NaN	NaN	NaN	NaN	NaN	NaN	NaN	NaN	NaN	NaN	NaN	NaN	NaN	NaN	NaN	NaN	NaN	NaN	NaN	NaN	NaN	NaN
64	0.63	-1134.54456	1622.44507	-1021.91162	-1150.73792	1626.83606	-891.58929	-1263.29199	1578.37988	-1033.15344	-1273.81323	1582.30957	-902.19	-1299.39258	1420.76575	-966.87488	-1338.31055	1108.68604	-968.96021	-1179.03113	1341.56946	-974.00934	-1138.71326	1175.83362	-986.27887	-1349.46167	1242.80103	-871.52686	-1233.21033	1387.73535	-1124.91028	-1243.06506	1196.3645	-1206.58154	-1227.00745	1076.25305	-1228.31042	-1173.14331	959.02734	-1237.20264	-1121.18872	850.75714	-1213.25122	-1151.04834	849.34583	-1260.4176	-1109.95093	775.63733	-1256.72925	-1216.27136	1360.41541	-812.08087	-1188.04077	1138.54871	-745.72076	-1154.71265	1030.56567	-737.00824	-1115.4884	899.4696	-742.0415	-1073.04077	812.25629	-783.79535	-1097.84937	800.65363	-737.48718	-1063.99121	735.68512	-752.27264	-1191.75928	943.72266	-1099.59875	-1170.73706	935.03638	-864.24329	-1348.87268	968.25299	-1039.41064	-1331.88	976.61609	-890.0957	-1198.3501	648.37067	-1162.51855	-1151.96509	473.29416	-1148.10181	-1266.25281	312.30075	-1140.45874	-1366.33582	129.53114	-1096.7583	-1413.03357	112.00201	-1052.04004	-1246.54602	39.60698	-1093.64612	-1243.3219	644.16309	-827.3363	-1245.01501	464.06152	-865.83429	-1299.70837	281.6604	-861.15784	-1339.61755	68.17551	-910.96594	-1385.14551	35.91003	-959.66809	-1198.78198	31.42807	-923.91565	NaN	NaN	NaN	NaN	NaN	NaN	NaN	NaN	NaN	NaN	NaN	NaN	NaN	NaN	NaN	NaN	NaN	NaN	NaN	NaN	NaN	NaN	NaN	NaN
65	0.64	-1130.55603	1622.35547	-1022.41766	-1146.67712	1626.80371	-892.05835	-1259.23157	1578.073	-1033.49609	-1269.8208	1582.18506	-902.49548	-1295.37146	1420.7511	-966.77698	-1334.39709	1108.60706	-968.36139	-1174.95874	1341.41809	-974.22229	-1134.88049	1175.60095	-986.37396	-1344.85791	1242.96741	-870.72314	-1229.6687	1387.42444	-1124.98767	-1240.41663	1195.87427	-1206.31262	-1224.91333	1075.81555	-1228.26672	-1171.09326	958.65552	-1237.32922	-1117.72961	851.22717	-1213.90125	-1149.19312	848.92206	-1260.54541	-1108.03369	775.22339	-1257.04834	-1211.31006	1360.45129	-812.26862	-1182.08728	1138.73462	-745.93097	-1148.34497	1030.87122	-737.3443	-1108.57605	899.97717	-742.7558	-1066.01807	812.85577	-784.79773	-1090.62061	801.20215	-738.21747	-1056.61011	736.36389	-753.11017	-1188.11035	943.93286	-1099.18555	-1166.65588	934.6792	-864.11426	-1345.04492	968.1748	-1039.1134	-1327.77966	976.45441	-889.70758	-1191.6012	648.94128	-1162.21204	-1144.36646	473.70007	-1146.16235	-1253.09521	310.27371	-1139.96423	-1347.14417	124.10548	-1097.19666	-1393.50403	104.58563	-1052.81445	-1223.55249	39.28323	-1094.55432	-1240.36365	643.84821	-827.26672	-1242.96729	463.79526	-865.78516	-1298.5553	281.58267	-861.17975	-1339.52283	68.29861	-910.99487	-1385.20728	36.26288	-959.72882	-1198.76697	31.41484	-923.89581	NaN	NaN	NaN	NaN	NaN	NaN	NaN	NaN	NaN	NaN	NaN	NaN	NaN	NaN	NaN	NaN	NaN	NaN	NaN	NaN	NaN	NaN	NaN	NaN
